<?xml version="1.0" encoding="UTF-8" standalone="no"?>
<!DOCTYPE svg PUBLIC "-//W3C//DTD SVG 1.1//EN"
 "http://www.w3.org/Graphics/SVG/1.1/DTD/svg11.dtd">
<!-- Generated by graphviz version 2.47.0 (20210316.0004)
 -->
<!-- Title: dependencies Pages: 1 -->
<svg width="954pt" height="211pt"
 viewBox="0.00 0.00 954.00 211.00" xmlns="http://www.w3.org/2000/svg" xmlns:xlink="http://www.w3.org/1999/xlink">
<g id="graph0" class="graph" transform="scale(1 1) rotate(0) translate(4 207)">
<title>dependencies</title>
<polygon fill="white" stroke="transparent" points="-4,4 -4,-207 950,-207 950,4 -4,4"/>
<text text-anchor="start" x="452.01" y="-42.4" font-family="Times-12" font-weight="bold" font-size="14.00">Legend</text>
<polygon fill="#ffffb3" stroke="transparent" points="239,-10 239,-30 259,-30 259,-10 239,-10"/>
<text text-anchor="start" x="262.63" y="-15.4" font-family="Times-12" font-size="14.00"> &#160;Declarations</text>
<polygon fill="#8dd3c7" stroke="transparent" points="352,-10 352,-30 372,-30 372,-10 352,-10"/>
<text text-anchor="start" x="375.73" y="-15.4" font-family="Times-12" font-size="14.00"> &#160;Module</text>
<polygon fill="#80b1d3" stroke="transparent" points="438,-10 438,-30 458,-30 458,-10 438,-10"/>
<text text-anchor="start" x="461.78" y="-15.4" font-family="Times-12" font-size="14.00"> &#160;Bootstrap</text>
<polygon fill="#fdb462" stroke="transparent" points="535,-10 535,-30 555,-30 555,-10 535,-10"/>
<text text-anchor="start" x="558.67" y="-15.4" font-family="Times-12" font-size="14.00"> &#160;Providers</text>
<polygon fill="#fb8072" stroke="transparent" points="631,-10 631,-30 651,-30 651,-10 631,-10"/>
<text text-anchor="start" x="654.73" y="-15.4" font-family="Times-12" font-size="14.00"> &#160;Exports</text>
<g id="clust1" class="cluster">
<title>cluster_AuthModule</title>
<polygon fill="none" stroke="black" stroke-dasharray="1,5" points="8,-70 8,-195 938,-195 938,-70 8,-70"/>
</g>
<g id="clust6" class="cluster">
<title>cluster_AuthModule_providers</title>
<polygon fill="none" stroke="black" points="132,-78 132,-130 930,-130 930,-78 132,-78"/>
</g>
<g id="clust3" class="cluster">
<title>cluster_AuthModule_imports</title>
<polygon fill="none" stroke="black" points="16,-78 16,-130 124,-130 124,-78 16,-78"/>
</g>
<!-- UsersModule -->
<g id="node1" class="node">
<title>UsersModule</title>
<polygon fill="#8dd3c7" stroke="black" points="115.92,-122 112.92,-126 91.92,-126 88.92,-122 24.08,-122 24.08,-86 115.92,-86 115.92,-122"/>
<text text-anchor="middle" x="70" y="-99.8" font-family="Times,serif" font-size="14.00">UsersModule</text>
</g>
<!-- AuthModule -->
<g id="node2" class="node">
<title>AuthModule</title>
<polygon fill="#8dd3c7" stroke="black" points="512.55,-187 509.55,-191 488.55,-191 485.55,-187 425.45,-187 425.45,-151 512.55,-151 512.55,-187"/>
<text text-anchor="middle" x="469" y="-164.8" font-family="Times,serif" font-size="14.00">AuthModule</text>
</g>
<!-- UsersModule&#45;&gt;AuthModule -->
<g id="edge1" class="edge">
<title>UsersModule&#45;&gt;AuthModule</title>
<path fill="none" stroke="black" d="M70,-122.28C70,-143.32 70,-175 70,-175 70,-175 415.16,-175 415.16,-175"/>
<polygon fill="black" stroke="black" points="415.16,-178.5 425.16,-175 415.16,-171.5 415.16,-178.5"/>
</g>
<!-- AuthService -->
<g id="node3" class="node">
<title>AuthService</title>
<ellipse fill="#fdb462" stroke="black" cx="863" cy="-104" rx="59.11" ry="18"/>
<text text-anchor="middle" x="863" y="-99.8" font-family="Times,serif" font-size="14.00">AuthService</text>
</g>
<!-- AuthService&#45;&gt;AuthModule -->
<g id="edge2" class="edge">
<title>AuthService&#45;&gt;AuthModule</title>
<path fill="none" stroke="black" d="M863,-122.28C863,-143.32 863,-175 863,-175 863,-175 522.67,-175 522.67,-175"/>
<polygon fill="black" stroke="black" points="522.67,-171.5 512.67,-175 522.67,-178.5 522.67,-171.5"/>
</g>
<!-- HashService -->
<g id="node4" class="node">
<title>HashService</title>
<ellipse fill="#fdb462" stroke="black" cx="726" cy="-104" rx="59.67" ry="18"/>
<text text-anchor="middle" x="726" y="-99.8" font-family="Times,serif" font-size="14.00">HashService</text>
</g>
<!-- HashService&#45;&gt;AuthModule -->
<g id="edge3" class="edge">
<title>HashService&#45;&gt;AuthModule</title>
<path fill="none" stroke="black" d="M726,-122.02C726,-139.37 726,-163 726,-163 726,-163 522.6,-163 522.6,-163"/>
<polygon fill="black" stroke="black" points="522.6,-159.5 512.6,-163 522.6,-166.5 522.6,-159.5"/>
</g>
<!-- JwtAccessStrategy -->
<g id="node5" class="node">
<title>JwtAccessStrategy</title>
<ellipse fill="#fdb462" stroke="black" cx="564" cy="-104" rx="83.94" ry="18"/>
<text text-anchor="middle" x="564" y="-99.8" font-family="Times,serif" font-size="14.00">JwtAccessStrategy</text>
</g>
<!-- JwtAccessStrategy&#45;&gt;AuthModule -->
<g id="edge4" class="edge">
<title>JwtAccessStrategy&#45;&gt;AuthModule</title>
<path fill="none" stroke="black" d="M496.4,-114.73C496.4,-114.73 496.4,-140.87 496.4,-140.87"/>
<polygon fill="black" stroke="black" points="492.9,-140.87 496.4,-150.87 499.9,-140.87 492.9,-140.87"/>
</g>
<!-- JwtRefreshStrategy -->
<g id="node6" class="node">
<title>JwtRefreshStrategy</title>
<ellipse fill="#fdb462" stroke="black" cx="375" cy="-104" rx="86.81" ry="18"/>
<text text-anchor="middle" x="375" y="-99.8" font-family="Times,serif" font-size="14.00">JwtRefreshStrategy</text>
</g>
<!-- JwtRefreshStrategy&#45;&gt;AuthModule -->
<g id="edge5" class="edge">
<title>JwtRefreshStrategy&#45;&gt;AuthModule</title>
<path fill="none" stroke="black" d="M443.44,-115.32C443.44,-115.32 443.44,-140.94 443.44,-140.94"/>
<polygon fill="black" stroke="black" points="439.94,-140.94 443.44,-150.94 446.94,-140.94 439.94,-140.94"/>
</g>
<!-- LocalStrategy -->
<g id="node7" class="node">
<title>LocalStrategy</title>
<ellipse fill="#fdb462" stroke="black" cx="205" cy="-104" rx="65.41" ry="18"/>
<text text-anchor="middle" x="205" y="-99.8" font-family="Times,serif" font-size="14.00">LocalStrategy</text>
</g>
<!-- LocalStrategy&#45;&gt;AuthModule -->
<g id="edge6" class="edge">
<title>LocalStrategy&#45;&gt;AuthModule</title>
<path fill="none" stroke="black" d="M205,-122.02C205,-139.37 205,-163 205,-163 205,-163 415.41,-163 415.41,-163"/>
<polygon fill="black" stroke="black" points="415.41,-166.5 425.41,-163 415.41,-159.5 415.41,-166.5"/>
</g>
</g>
</svg>
