<?xml version="1.0" encoding="UTF-8" standalone="no"?>
<!DOCTYPE svg PUBLIC "-//W3C//DTD SVG 1.1//EN"
 "http://www.w3.org/Graphics/SVG/1.1/DTD/svg11.dtd">
<!-- Generated by graphviz version 2.47.0 (20210316.0004)
 -->
<!-- Title: dependencies Pages: 1 -->
<svg width="1805pt" height="287pt"
 viewBox="0.00 0.00 1805.00 287.00" xmlns="http://www.w3.org/2000/svg" xmlns:xlink="http://www.w3.org/1999/xlink">
<g id="graph0" class="graph" transform="scale(1 1) rotate(0) translate(4 283)">
<title>dependencies</title>
<polygon fill="white" stroke="transparent" points="-4,4 -4,-283 1801,-283 1801,4 -4,4"/>
<text text-anchor="start" x="877.51" y="-42.4" font-family="Times-12" font-weight="bold" font-size="14.00">Legend</text>
<polygon fill="#ffffb3" stroke="transparent" points="664.5,-10 664.5,-30 684.5,-30 684.5,-10 664.5,-10"/>
<text text-anchor="start" x="688.13" y="-15.4" font-family="Times-12" font-size="14.00"> &#160;Declarations</text>
<polygon fill="#8dd3c7" stroke="transparent" points="777.5,-10 777.5,-30 797.5,-30 797.5,-10 777.5,-10"/>
<text text-anchor="start" x="801.23" y="-15.4" font-family="Times-12" font-size="14.00"> &#160;Module</text>
<polygon fill="#80b1d3" stroke="transparent" points="863.5,-10 863.5,-30 883.5,-30 883.5,-10 863.5,-10"/>
<text text-anchor="start" x="887.28" y="-15.4" font-family="Times-12" font-size="14.00"> &#160;Bootstrap</text>
<polygon fill="#fdb462" stroke="transparent" points="960.5,-10 960.5,-30 980.5,-30 980.5,-10 960.5,-10"/>
<text text-anchor="start" x="984.17" y="-15.4" font-family="Times-12" font-size="14.00"> &#160;Providers</text>
<polygon fill="#fb8072" stroke="transparent" points="1056.5,-10 1056.5,-30 1076.5,-30 1076.5,-10 1056.5,-10"/>
<text text-anchor="start" x="1080.23" y="-15.4" font-family="Times-12" font-size="14.00"> &#160;Exports</text>
<g id="clust1" class="cluster">
<title>cluster_AppModule</title>
<polygon fill="none" stroke="black" stroke-dasharray="1,5" points="831,-70 831,-271 1209,-271 1209,-70 831,-70"/>
</g>
<g id="clust3" class="cluster">
<title>cluster_AppModule_imports</title>
<polygon fill="none" stroke="black" points="977,-78 977,-206 1201,-206 1201,-78 977,-78"/>
</g>
<g id="clust6" class="cluster">
<title>cluster_AppModule_providers</title>
<polygon fill="none" stroke="black" points="839,-154 839,-206 969,-206 969,-154 839,-154"/>
</g>
<g id="clust7" class="cluster">
<title>cluster_AuthModule</title>
<polygon fill="none" stroke="black" stroke-dasharray="1,5" points="8,-70 8,-138 823,-138 823,-70 8,-70"/>
</g>
<g id="clust12" class="cluster">
<title>cluster_AuthModule_providers</title>
<polygon fill="none" stroke="black" points="16,-78 16,-130 815,-130 815,-78 16,-78"/>
</g>
<g id="clust13" class="cluster">
<title>cluster_PrismaModule</title>
<polygon fill="none" stroke="black" stroke-dasharray="1,5" points="1217,-146 1217,-214 1507,-214 1507,-146 1217,-146"/>
</g>
<g id="clust16" class="cluster">
<title>cluster_PrismaModule_exports</title>
<polygon fill="none" stroke="black" points="1383,-154 1383,-206 1499,-206 1499,-154 1383,-154"/>
</g>
<g id="clust18" class="cluster">
<title>cluster_PrismaModule_providers</title>
<polygon fill="none" stroke="black" points="1225,-154 1225,-206 1375,-206 1375,-154 1225,-154"/>
</g>
<g id="clust19" class="cluster">
<title>cluster_UsersModule</title>
<polygon fill="none" stroke="black" stroke-dasharray="1,5" points="1515,-146 1515,-214 1789,-214 1789,-146 1515,-146"/>
</g>
<g id="clust22" class="cluster">
<title>cluster_UsersModule_exports</title>
<polygon fill="none" stroke="black" points="1671,-154 1671,-206 1781,-206 1781,-154 1671,-154"/>
</g>
<g id="clust24" class="cluster">
<title>cluster_UsersModule_providers</title>
<polygon fill="none" stroke="black" points="1523,-154 1523,-206 1663,-206 1663,-154 1523,-154"/>
</g>
<!-- AuthModule -->
<g id="node1" class="node">
<title>AuthModule</title>
<polygon fill="#8dd3c7" stroke="black" points="1072.55,-198 1069.55,-202 1048.55,-202 1045.55,-198 985.45,-198 985.45,-162 1072.55,-162 1072.55,-198"/>
<text text-anchor="middle" x="1029" y="-175.8" font-family="Times,serif" font-size="14.00">AuthModule</text>
</g>
<!-- AppModule -->
<g id="node4" class="node">
<title>AppModule</title>
<polygon fill="#8dd3c7" stroke="black" points="1101.66,-263 1098.66,-267 1077.66,-267 1074.66,-263 1018.34,-263 1018.34,-227 1101.66,-227 1101.66,-263"/>
<text text-anchor="middle" x="1060" y="-240.8" font-family="Times,serif" font-size="14.00">AppModule</text>
</g>
<!-- AuthModule&#45;&gt;AppModule -->
<g id="edge1" class="edge">
<title>AuthModule&#45;&gt;AppModule</title>
<path fill="none" stroke="black" d="M1045.47,-198.11C1045.47,-198.11 1045.47,-216.99 1045.47,-216.99"/>
<polygon fill="black" stroke="black" points="1041.97,-216.99 1045.47,-226.99 1048.97,-216.99 1041.97,-216.99"/>
</g>
<!-- PrismaModule -->
<g id="node2" class="node">
<title>PrismaModule</title>
<polygon fill="#8dd3c7" stroke="black" points="1083.43,-122 1080.43,-126 1059.43,-126 1056.43,-122 984.57,-122 984.57,-86 1083.43,-86 1083.43,-122"/>
<text text-anchor="middle" x="1034" y="-99.8" font-family="Times,serif" font-size="14.00">PrismaModule</text>
</g>
<!-- PrismaModule&#45;&gt;AppModule -->
<g id="edge2" class="edge">
<title>PrismaModule&#45;&gt;AppModule</title>
<path fill="none" stroke="black" d="M1078,-122.14C1078,-122.14 1078,-216.93 1078,-216.93"/>
<polygon fill="black" stroke="black" points="1074.5,-216.92 1078,-226.93 1081.5,-216.93 1074.5,-216.92"/>
</g>
<!-- PrismaService  -->
<g id="node11" class="node">
<title>PrismaService </title>
<polygon fill="#fb8072" stroke="black" points="1491.36,-198 1390.64,-198 1390.64,-162 1491.36,-162 1491.36,-198"/>
<text text-anchor="middle" x="1441" y="-175.8" font-family="Times,serif" font-size="14.00">PrismaService </text>
</g>
<!-- PrismaModule&#45;&gt;PrismaService  -->
<g id="edge11" class="edge">
<title>PrismaModule&#45;&gt;PrismaService </title>
<path fill="none" stroke="black" stroke-dasharray="5,2" d="M1075.38,-122.19C1075.38,-137.18 1075.38,-156 1075.38,-156 1075.38,-156 1441,-156 1441,-156 1441,-156 1441,-156.58 1441,-156.58"/>
<polygon fill="black" stroke="black" points="1437.5,-151.81 1441,-161.81 1444.5,-151.81 1437.5,-151.81"/>
</g>
<!-- UsersModule -->
<g id="node3" class="node">
<title>UsersModule</title>
<polygon fill="#8dd3c7" stroke="black" points="1192.92,-122 1189.92,-126 1168.92,-126 1165.92,-122 1101.08,-122 1101.08,-86 1192.92,-86 1192.92,-122"/>
<text text-anchor="middle" x="1147" y="-99.8" font-family="Times,serif" font-size="14.00">UsersModule</text>
</g>
<!-- UsersModule&#45;&gt;AuthModule -->
<g id="edge5" class="edge">
<title>UsersModule&#45;&gt;AuthModule</title>
<path fill="none" stroke="black" d="M1147.27,-122.03C1147.27,-142.77 1147.27,-174 1147.27,-174 1147.27,-174 1082.7,-174 1082.7,-174"/>
<polygon fill="black" stroke="black" points="1082.7,-170.5 1072.7,-174 1082.7,-177.5 1082.7,-170.5"/>
</g>
<!-- UsersModule&#45;&gt;AppModule -->
<g id="edge3" class="edge">
<title>UsersModule&#45;&gt;AppModule</title>
<path fill="none" stroke="black" d="M1100.81,-104C1095.67,-104 1092.25,-104 1092.25,-104 1092.25,-104 1092.25,-216.86 1092.25,-216.86"/>
<polygon fill="black" stroke="black" points="1088.75,-216.86 1092.25,-226.86 1095.75,-216.86 1088.75,-216.86"/>
</g>
<!-- UsersService  -->
<g id="node13" class="node">
<title>UsersService </title>
<polygon fill="#fb8072" stroke="black" points="1772.85,-198 1679.15,-198 1679.15,-162 1772.85,-162 1772.85,-198"/>
<text text-anchor="middle" x="1726" y="-175.8" font-family="Times,serif" font-size="14.00">UsersService </text>
</g>
<!-- UsersModule&#45;&gt;UsersService  -->
<g id="edge13" class="edge">
<title>UsersModule&#45;&gt;UsersService </title>
<path fill="none" stroke="black" stroke-dasharray="5,2" d="M1192.92,-98C1329.86,-98 1726,-98 1726,-98 1726,-98 1726,-151.8 1726,-151.8"/>
<polygon fill="black" stroke="black" points="1722.5,-151.8 1726,-161.8 1729.5,-151.8 1722.5,-151.8"/>
</g>
<!-- AppService -->
<g id="node5" class="node">
<title>AppService</title>
<ellipse fill="#fdb462" stroke="black" cx="904" cy="-180" rx="56.74" ry="18"/>
<text text-anchor="middle" x="904" y="-175.8" font-family="Times,serif" font-size="14.00">AppService</text>
</g>
<!-- AppService&#45;&gt;AppModule -->
<g id="edge4" class="edge">
<title>AppService&#45;&gt;AppModule</title>
<path fill="none" stroke="black" d="M904,-198.11C904,-217.34 904,-245 904,-245 904,-245 1008.19,-245 1008.19,-245"/>
<polygon fill="black" stroke="black" points="1008.19,-248.5 1018.19,-245 1008.19,-241.5 1008.19,-248.5"/>
</g>
<!-- AuthService -->
<g id="node6" class="node">
<title>AuthService</title>
<ellipse fill="#fdb462" stroke="black" cx="599" cy="-104" rx="59.11" ry="18"/>
<text text-anchor="middle" x="599" y="-99.8" font-family="Times,serif" font-size="14.00">AuthService</text>
</g>
<!-- AuthService&#45;&gt;AuthModule -->
<g id="edge6" class="edge">
<title>AuthService&#45;&gt;AuthModule</title>
<path fill="none" stroke="black" d="M599,-122.17C599,-126.05 599,-129 599,-129 599,-129 1055.26,-129 1055.26,-129 1055.26,-129 1055.26,-151.88 1055.26,-151.88"/>
<polygon fill="black" stroke="black" points="1051.76,-151.88 1055.26,-161.88 1058.76,-151.88 1051.76,-151.88"/>
</g>
<!-- HashService -->
<g id="node7" class="node">
<title>HashService</title>
<ellipse fill="#fdb462" stroke="black" cx="462" cy="-104" rx="59.67" ry="18"/>
<text text-anchor="middle" x="462" y="-99.8" font-family="Times,serif" font-size="14.00">HashService</text>
</g>
<!-- HashService&#45;&gt;AuthModule -->
<g id="edge7" class="edge">
<title>HashService&#45;&gt;AuthModule</title>
<path fill="none" stroke="black" d="M462,-122.24C462,-129.43 462,-136 462,-136 462,-136 1037.75,-136 1037.75,-136 1037.75,-136 1037.75,-151.85 1037.75,-151.85"/>
<polygon fill="black" stroke="black" points="1034.25,-151.85 1037.75,-161.85 1041.25,-151.85 1034.25,-151.85"/>
</g>
<!-- JwtAccessStrategy -->
<g id="node8" class="node">
<title>JwtAccessStrategy</title>
<ellipse fill="#fdb462" stroke="black" cx="300" cy="-104" rx="83.94" ry="18"/>
<text text-anchor="middle" x="300" y="-99.8" font-family="Times,serif" font-size="14.00">JwtAccessStrategy</text>
</g>
<!-- JwtAccessStrategy&#45;&gt;AuthModule -->
<g id="edge8" class="edge">
<title>JwtAccessStrategy&#45;&gt;AuthModule</title>
<path fill="none" stroke="black" d="M300,-122.11C300,-131.9 300,-142 300,-142 300,-142 1020.25,-142 1020.25,-142 1020.25,-142 1020.25,-151.89 1020.25,-151.89"/>
<polygon fill="black" stroke="black" points="1016.75,-151.89 1020.25,-161.89 1023.75,-151.89 1016.75,-151.89"/>
</g>
<!-- JwtRefreshStrategy -->
<g id="node9" class="node">
<title>JwtRefreshStrategy</title>
<ellipse fill="#fdb462" stroke="black" cx="111" cy="-104" rx="86.81" ry="18"/>
<text text-anchor="middle" x="111" y="-99.8" font-family="Times,serif" font-size="14.00">JwtRefreshStrategy</text>
</g>
<!-- JwtRefreshStrategy&#45;&gt;AuthModule -->
<g id="edge9" class="edge">
<title>JwtRefreshStrategy&#45;&gt;AuthModule</title>
<path fill="none" stroke="black" d="M111,-122.04C111,-134.56 111,-149 111,-149 111,-149 1002.74,-149 1002.74,-149 1002.74,-149 1002.74,-151.97 1002.74,-151.97"/>
<polygon fill="black" stroke="black" points="999.24,-151.97 1002.74,-161.97 1006.24,-151.97 999.24,-151.97"/>
</g>
<!-- LocalStrategy -->
<g id="node10" class="node">
<title>LocalStrategy</title>
<ellipse fill="#fdb462" stroke="black" cx="742" cy="-104" rx="65.41" ry="18"/>
<text text-anchor="middle" x="742" y="-99.8" font-family="Times,serif" font-size="14.00">LocalStrategy</text>
</g>
<!-- LocalStrategy&#45;&gt;AuthModule -->
<g id="edge10" class="edge">
<title>LocalStrategy&#45;&gt;AuthModule</title>
<path fill="none" stroke="black" d="M807.49,-104C875.7,-104 972.7,-104 972.7,-104 972.7,-104 972.7,-180 972.7,-180 972.7,-180 975.2,-180 975.2,-180"/>
<polygon fill="black" stroke="black" points="975.2,-183.5 985.2,-180 975.2,-176.5 975.2,-183.5"/>
</g>
<!-- PrismaService -->
<g id="node12" class="node">
<title>PrismaService</title>
<ellipse fill="#fdb462" stroke="black" cx="1300" cy="-180" rx="66.63" ry="18"/>
<text text-anchor="middle" x="1300" y="-175.8" font-family="Times,serif" font-size="14.00">PrismaService</text>
</g>
<!-- PrismaService&#45;&gt;PrismaModule -->
<g id="edge12" class="edge">
<title>PrismaService&#45;&gt;PrismaModule</title>
<path fill="none" stroke="black" d="M1236.84,-186C1172.02,-186 1080.61,-186 1080.61,-186 1080.61,-186 1080.61,-132.2 1080.61,-132.2"/>
<polygon fill="black" stroke="black" points="1084.11,-132.2 1080.61,-122.2 1077.11,-132.2 1084.11,-132.2"/>
</g>
<!-- UsersService -->
<g id="node14" class="node">
<title>UsersService</title>
<ellipse fill="#fdb462" stroke="black" cx="1593" cy="-180" rx="61.95" ry="18"/>
<text text-anchor="middle" x="1593" y="-175.8" font-family="Times,serif" font-size="14.00">UsersService</text>
</g>
<!-- UsersService&#45;&gt;UsersModule -->
<g id="edge14" class="edge">
<title>UsersService&#45;&gt;UsersModule</title>
<path fill="none" stroke="black" d="M1593,-161.97C1593,-141.23 1593,-110 1593,-110 1593,-110 1203.05,-110 1203.05,-110"/>
<polygon fill="black" stroke="black" points="1203.05,-106.5 1193.05,-110 1203.05,-113.5 1203.05,-106.5"/>
</g>
</g>
</svg>
